<svg width="53" height="63" viewBox="0 0 53 63" fill="none" xmlns="http://www.w3.org/2000/svg">
<path d="M13.7327 45.7363C10.5502 45.7363 7.37022 44.6856 4.24036 42.5925C4.15874 42.5449 4.08765 42.4809 4.03145 42.4047C3.97524 42.3284 3.9351 42.2415 3.91347 42.1491C3.89185 42.0567 3.8892 41.9608 3.90568 41.8674C3.92217 41.7739 3.95744 41.6848 4.00934 41.6055C4.06125 41.5263 4.12869 41.4585 4.20755 41.4063C4.2864 41.3542 4.37501 41.3187 4.46795 41.3022C4.5609 41.2857 4.65622 41.2884 4.74808 41.3102C4.83995 41.3319 4.92642 41.3724 5.00222 41.4289C9.05517 44.138 13.003 44.951 17.0631 43.9134C25.0735 41.872 33.3466 32.5535 42.3565 15.438L42.8162 14.5662C42.8736 14.4578 42.967 14.3731 43.0802 14.3269C43.1934 14.2808 43.3191 14.2761 43.4354 14.3138C43.5516 14.3514 43.651 14.4289 43.7162 14.5328C43.7814 14.6367 43.8081 14.7603 43.7918 14.882L43.6569 15.8607C41.9481 28.3242 42.1391 37.4758 44.254 44.6532C44.3108 44.8279 44.299 45.0179 44.2211 45.1842C44.1432 45.3505 44.005 45.4806 43.8348 45.5478C43.746 45.5796 43.6517 45.593 43.5576 45.587C43.4636 45.5811 43.3717 45.5559 43.2876 45.5131C43.2034 45.4703 43.1289 45.4108 43.0684 45.3381C43.0079 45.2654 42.9627 45.1811 42.9356 45.0903C40.9629 38.4424 40.5975 30.1999 41.8155 19.3551C33.2833 34.7703 25.2789 43.2578 17.4059 45.2716C16.2055 45.5797 14.9715 45.7358 13.7327 45.7363Z" fill="#000"/>
<path d="M17.9458 36.7971C17.4283 36.7971 16.9109 36.7947 16.3934 36.7899C16.2513 36.7899 16.1152 36.7803 15.9874 36.7659C12.6354 36.3828 10.2555 34.7713 9.61301 32.4561C9.01594 30.2802 10.0525 27.9614 12.4682 26.0917C12.5405 26.0358 12.623 25.9949 12.7111 25.9711C12.7991 25.9474 12.8909 25.9413 12.9813 25.9532C13.0717 25.9651 13.1588 25.9949 13.2378 26.0407C13.3167 26.0865 13.3859 26.1474 13.4415 26.2201C13.497 26.2928 13.5377 26.3758 13.5613 26.4643C13.5849 26.5529 13.591 26.6452 13.5791 26.7361C13.5673 26.827 13.5377 26.9146 13.4922 26.994C13.4466 27.0734 13.386 27.143 13.3137 27.1988C11.372 28.6999 10.5086 30.4831 10.9528 32.0826C11.4305 33.8298 13.377 35.0619 16.1462 35.3789C16.2262 35.3873 16.3158 35.3921 16.4101 35.3933C27.1979 35.4961 37.9698 34.5348 48.571 32.5233C48.7518 32.4889 48.9389 32.5282 49.0909 32.6325C49.243 32.7367 49.3476 32.8975 49.3818 33.0793C49.416 33.2612 49.377 33.4492 49.2733 33.6022C49.1696 33.7551 49.0098 33.8603 48.8289 33.8947C38.6469 35.8273 28.3076 36.799 17.9458 36.7971Z" fill="#000"/>
<path d="M28.2118 0C18.3828 0 9.87443 5.77963 5.86567 14.1338L0 7.99997V62.8998H53V24.927C53 11.1822 41.8789 0 28.2118 0ZM52.3552 37.5297H52.2763L52.2835 39.5892C52.2926 41.9329 51.8419 44.2555 50.9573 46.4239C50.0726 48.5922 48.7713 50.5638 47.1279 52.2258C45.4845 53.8878 43.5312 55.2075 41.38 56.1094C39.2287 57.0112 36.9217 57.4776 34.591 57.4816L4.06011 57.5297V44.5691H3.42124V58.1769L34.5886 58.1277C38.6576 58.1206 42.6094 56.7561 45.8245 54.2481C49.0396 51.7402 51.3365 48.2304 52.3552 44.2688V62.2514H0.643647V9.60669L5.5731 14.7703C4.1514 17.9669 3.41885 21.43 3.42363 24.9318V38.8255H4.06011V24.927C4.05616 21.6048 4.73426 18.3175 6.05196 15.271L24.1218 34.153L24.5852 33.7039L6.34214 14.6322C10.204 6.37764 18.5535 0.647251 28.2118 0.647251C41.5242 0.647251 52.3552 11.54 52.3552 24.927V37.5297Z" fill="#000"/>
<path d="M29.8304 39.1385L29.376 39.5986L52.5319 62.7222L52.9863 62.2621L29.8304 39.1385Z" fill="#000"/>
<path d="M52.1299 21.6211L43.2979 30.6621L43.7579 31.1165L52.5899 22.0755L52.1299 21.6211Z" fill="#000"/>
<path d="M38.2081 36.4193L12.9331 62.2202L13.3925 62.6753L38.6675 36.8744L38.2081 36.4193Z" fill="#000"/>
</svg>
