<svg width="122" height="191" viewBox="0 0 122 191" fill="none" xmlns="http://www.w3.org/2000/svg">
<path d="M31.6114 105.28C24.2859 105.28 16.9658 102.861 9.76123 98.043C9.57336 97.9333 9.40973 97.7862 9.28035 97.6107C9.15097 97.4351 9.05857 97.2349 9.00879 97.0223C8.95901 96.8096 8.95291 96.5889 8.99085 96.3738C9.0288 96.1587 9.11 95.9536 9.22947 95.7711C9.34895 95.5887 9.5042 95.4326 9.68571 95.3125C9.86723 95.1925 10.0712 95.1109 10.2851 95.0729C10.4991 95.0348 10.7185 95.041 10.93 95.0912C11.1414 95.1413 11.3405 95.2344 11.515 95.3645C20.8444 101.601 29.9319 103.472 39.2778 101.084C57.7168 96.3845 76.7605 74.9344 97.5002 35.5364L98.5585 33.5296C98.6905 33.28 98.9057 33.0851 99.1662 32.9789C99.4267 32.8726 99.7161 32.8619 99.9837 32.9485C100.251 33.0352 100.48 33.2136 100.63 33.4528C100.78 33.6919 100.842 33.9764 100.804 34.2566L100.494 36.5094C96.5601 65.1989 96.9999 86.2648 101.868 102.786C101.999 103.189 101.972 103.626 101.792 104.009C101.613 104.392 101.295 104.691 100.903 104.846C100.699 104.919 100.482 104.95 100.265 104.936C100.049 104.922 99.8371 104.864 99.6435 104.766C99.4499 104.667 99.2782 104.53 99.1389 104.363C98.9996 104.196 98.8957 104.002 98.8334 103.793C94.2923 88.49 93.4512 69.5166 96.255 44.5532C76.6148 80.0371 58.1896 99.5744 40.0668 104.21C37.3036 104.919 34.4632 105.278 31.6114 105.28Z" fill="white"/>
<path d="M41.3091 84.7031C40.1179 84.7031 38.9268 84.6976 37.7357 84.6865C37.4085 84.6865 37.0952 84.6644 36.8011 84.6312C29.0852 83.7494 23.6068 80.0399 22.128 74.7105C20.7536 69.7018 23.1395 64.3642 28.7003 60.0603C28.8668 59.9318 29.0567 59.8375 29.2594 59.7829C29.462 59.7282 29.6734 59.7142 29.8814 59.7416C30.0894 59.7691 30.29 59.8375 30.4718 59.9429C30.6535 60.0484 30.8128 60.1888 30.9406 60.3561C31.0684 60.5234 31.1622 60.7145 31.2165 60.9182C31.2709 61.122 31.2848 61.3346 31.2575 61.5438C31.2302 61.753 31.1622 61.9547 31.0574 62.1374C30.9525 62.3202 30.8129 62.4804 30.6465 62.6089C26.1769 66.0641 24.1896 70.169 25.2121 73.8509C26.3116 77.8728 30.7922 80.7088 37.1667 81.4386C37.3508 81.4579 37.557 81.469 37.7741 81.4717C62.6064 81.7083 87.402 79.4956 111.805 74.8653C112.221 74.7862 112.652 74.8765 113.002 75.1165C113.352 75.3565 113.593 75.7265 113.671 76.1451C113.75 76.5638 113.66 76.9967 113.421 77.3487C113.183 77.7006 112.815 77.9429 112.399 78.022C88.9607 82.4707 65.1608 84.7074 41.3091 84.7031Z" fill="white"/>
<path d="M64.9404 0C42.315 0 22.7298 13.304 13.5021 32.5345L0 18.415V144.788H122V57.3791C122 25.7401 96.4004 0 64.9404 0ZM120.516 86.3892H120.334L120.351 91.1298C120.372 96.5249 119.334 101.871 117.298 106.862C115.261 111.854 112.266 116.392 108.483 120.218C104.7 124.044 100.204 127.081 95.252 129.157C90.3001 131.233 84.9896 132.307 79.6245 132.316L9.34592 132.427V102.593H7.87531V133.917L79.619 133.803C88.9855 133.787 98.0819 130.646 105.483 124.873C112.884 119.1 118.171 111.021 120.516 101.902V143.296H1.4816V22.1135L12.8287 33.9995C9.55605 41.3578 7.8698 49.3295 7.88081 57.3901V89.3718H9.34592V57.3791C9.33683 49.7318 10.8977 42.1649 13.9309 35.1522L55.5258 78.6163L56.5923 77.5825L14.5989 33.6817C23.4885 14.6806 42.7081 1.4899 64.9404 1.4899C95.584 1.4899 120.516 26.5639 120.516 57.3791V86.3892Z" fill="white"/>
<path d="M68.666 90.0927L67.6201 91.1519L120.923 144.38L121.968 143.321L68.666 90.0927Z" fill="white"/>
<path d="M119.997 49.7691L99.667 70.5805L100.726 71.6265L121.056 50.8151L119.997 49.7691Z" fill="white"/>
<path d="M87.9508 83.8332L29.7705 143.224L30.8279 144.272L89.0082 84.8808L87.9508 83.8332Z" fill="white"/>
<path d="M23.856 175.427H16.872L15.672 178.835H12.816L18.792 162.131H21.96L27.936 178.835H25.056L23.856 175.427ZM23.088 173.195L20.376 165.443L17.64 173.195H23.088ZM39.1984 178.835L35.3584 172.163H33.2704V178.835H30.5344V162.155H36.2944C37.5744 162.155 38.6544 162.379 39.5344 162.827C40.4304 163.275 41.0944 163.875 41.5264 164.627C41.9744 165.379 42.1984 166.219 42.1984 167.147C42.1984 168.235 41.8784 169.227 41.2384 170.123C40.6144 171.003 39.6464 171.603 38.3344 171.923L42.4624 178.835H39.1984ZM33.2704 169.979H36.2944C37.3184 169.979 38.0864 169.723 38.5984 169.211C39.1264 168.699 39.3904 168.011 39.3904 167.147C39.3904 166.283 39.1344 165.611 38.6224 165.131C38.1104 164.635 37.3344 164.387 36.2944 164.387H33.2704V169.979ZM56.4744 162.155V164.387H52.0344V178.835H49.2984V164.387H44.8344V162.155H56.4744ZM68.2157 176.627H73.8557V178.835H65.4797V162.155H68.2157V176.627ZM78.8798 162.155V178.835H76.1438V162.155H78.8798ZM96.1759 178.835H93.4399L85.2079 166.379V178.835H82.4719V162.131H85.2079L93.4399 174.563V162.131H96.1759V178.835ZM102.505 164.363V169.259H108.265V171.491H102.505V176.603H108.985V178.835H99.7688V162.131H108.985V164.363H102.505Z" fill="white"/>
</svg>
